<?xml version="1.0" encoding="UTF-8"?>
<svg width="132.29mm" height="132.29mm" version="1.1" viewBox="0 0 132.29 132.29" xmlns="http://www.w3.org/2000/svg">
<g transform="translate(517.07 131.62)">
<rect x="-517.07" y="-131.62" width="132.29" height="132.29" fill="#251c36" style="paint-order:normal"/>
<path d="m-485.43-16.125c16.267-19.74 52.749-19.74 69.017 0 23.39 28.383 7.3672 120.42 7.3672 120.42h-83.751s-16.023-92.036 7.3672-120.42z" fill="#3a314e" style="paint-order:normal"/>
<path d="m-489.91-117.38c-1.8302 14.815-0.36798 29.61 2.736 45.618 3.5598 18.359 19.682 37.089 36.251 37.086 16.569-0.0028 32.687-18.729 36.246-37.086 3.104-16.008 4.5662-30.804 2.736-45.618-7.1503 3.5938-11.495 7.1961-15.114 13.986-5.735-4.9642-13.03-8.8391-23.87-8.8391-10.841 0-18.135 3.8749-23.87 8.8391-3.6187-6.7897-7.9636-10.392-15.114-13.986z" fill="#3a314e" style="paint-order:normal"/>
<g transform="matrix(5.8112 0 0 5.8112 12701 1212.7)" fill="#251c36" stroke-width="1px" aria-label="?">
<path d="m-2260.3-223.17q0 0.59082-0.1679 1.0474-0.1678 0.45654-0.4699 0.77881-0.3022 0.32226-0.7251 0.50354-0.423 0.18127-0.94 0.21484l-0.047 1.618q0 0.10071-0.1208 0.15442-0.1141 0.047-0.376 0.047-0.141 0-0.2417-7e-3 -0.1007-0.0134-0.1611-0.0336-0.06-0.0269-0.087-0.0671-0.027-0.0403-0.027-0.094l-0.04-1.8597q-0.01-0.15442 0.02-0.24841 0.034-0.10071 0.094-0.16113 0.06-0.0671 0.1544-0.0873 0.094-0.0269 0.2149-0.0269h0.1477q0.4364 0 0.7452-0.13428 0.3088-0.14099 0.4968-0.36926 0.1947-0.22827 0.282-0.53711 0.087-0.30884 0.087-0.64453 0-0.38269-0.1074-0.69824-0.1075-0.32227-0.3223-0.55054-0.2148-0.23498-0.5438-0.36255-0.3223-0.12756-0.7654-0.12756-0.3894 0-0.6848 0.0873-0.2887 0.0806-0.5036 0.18127-0.2148 0.10071-0.3558 0.18128-0.1343 0.0806-0.2014 0.0806-0.047 0-0.087-0.0201-0.034-0.0201-0.06-0.0739-0.027-0.0604-0.04-0.15442-0.013-0.10071-0.013-0.24841 0-0.16113 0.02-0.2417 0.02-0.0873 0.087-0.14771 0.067-0.0671 0.2551-0.16784 0.1947-0.10742 0.4633-0.1947 0.2753-0.0873 0.5975-0.14771 0.329-0.0604 0.6781-0.0604 0.7184 0 1.2354 0.20813 0.5169 0.20141 0.8526 0.55053t0.4969 0.81909q0.1611 0.46997 0.1611 0.99366zm-2.1216 5.9552q0 0.22155-0.034 0.36926-0.027 0.14099-0.1074 0.23498-0.081 0.0873-0.2215 0.12085-0.1343 0.0403-0.3357 0.0403-0.2149 0-0.3492-0.0403-0.1342-0.0336-0.2215-0.12085-0.081-0.094-0.1141-0.23498-0.027-0.14771-0.027-0.36926 0-0.22156 0.027-0.36927 0.034-0.15442 0.1141-0.23498 0.087-0.0873 0.2215-0.12085 0.1343-0.0403 0.3492-0.0403 0.2014 0 0.3357 0.0403 0.141 0.0336 0.2215 0.12085 0.081 0.0806 0.1074 0.23498 0.034 0.14771 0.034 0.36927z"/>
</g>
</g>
</svg>
