<?xml version="1.0" encoding="UTF-8"?>
<svg width="132.29mm" height="132.29mm" version="1.1" viewBox="0 0 132.29 132.29" xmlns="http://www.w3.org/2000/svg">
<g transform="translate(585.86 84)">
<path d="m-585.86-84h132.29v132.29h-132.29z" fill="#36274e" style="paint-order:normal"/>
<path d="m-573.58-71.716h107.72v107.72h-107.72z" fill="#251c36" style="paint-order:normal"/>
<g transform="matrix(1.3354 0 0 1.3354 3146 322.74)" fill="#fff" stroke-width="1px" aria-label="TAG BLOCKED">
<path d="m-2777.3-259.34q0 0.1947-0.02 0.33569-0.013 0.13428-0.047 0.22156-0.034 0.0806-0.087 0.12085-0.047 0.0403-0.1074 0.0403h-2.1753v7.0026q0 0.0671-0.047 0.12085-0.04 0.0537-0.141 0.0873-0.1007 0.0336-0.2753 0.0537-0.1678 0.0201-0.4229 0.0201-0.2552 0-0.4297-0.0201-0.1679-0.0202-0.2686-0.0537-0.1007-0.0336-0.1477-0.0873-0.04-0.0537-0.04-0.12085v-7.0026h-2.1753q-0.067 0-0.1141-0.0403-0.047-0.0403-0.081-0.12085-0.034-0.0873-0.054-0.22156-0.013-0.14099-0.013-0.33569 0-0.20142 0.013-0.34241 0.02-0.14099 0.054-0.22156 0.034-0.0873 0.081-0.12085 0.047-0.0403 0.1141-0.0403h6.1231q0.06 0 0.1074 0.0403 0.054 0.0336 0.087 0.12085 0.034 0.0806 0.047 0.22156 0.02 0.14099 0.02 0.34241z"/>
<path d="m-2770.2-252.04q0.081 0.2417 0.1007 0.3827 0.02 0.14099-0.054 0.21484-0.074 0.0671-0.2619 0.0806-0.188 0.0201-0.517 0.0201-0.3424 0-0.5371-0.0134-0.188-7e-3 -0.2887-0.0336-0.1007-0.0336-0.141-0.0873-0.04-0.0537-0.067-0.14099l-0.5841-1.7456h-3.2629l-0.5506 1.6986q-0.027 0.094-0.074 0.16113-0.04 0.0604-0.141 0.10071-0.094 0.0336-0.2753 0.047-0.1745 0.0134-0.4632 0.0134-0.3089 0-0.4834-0.0201-0.1746-0.0202-0.2417-0.094-0.067-0.0806-0.047-0.22156 0.02-0.14099 0.1007-0.37597l2.6788-7.7075q0.04-0.11414 0.094-0.18128 0.054-0.0738 0.1678-0.10742 0.1209-0.0403 0.329-0.047 0.2082-0.0134 0.5506-0.0134 0.3961 0 0.6311 0.0134 0.2349 7e-3 0.3625 0.047 0.1343 0.0336 0.188 0.10742 0.06 0.0739 0.1007 0.20142zm-3.9881-6.3715h-0.01l-1.2286 3.6926h2.464z"/>
<path d="m-2762.2-258.72q0 0.1947-0.02 0.33569-0.014 0.14099-0.047 0.22827-0.027 0.0806-0.074 0.11414-0.04 0.0336-0.1007 0.0336-0.087 0-0.282-0.12085-0.1947-0.12085-0.5169-0.26184-0.3223-0.14099-0.7721-0.26184-0.4431-0.12085-1.034-0.12085-0.6311 0-1.1413 0.22155-0.5103 0.21485-0.8728 0.61768-0.3626 0.39612-0.5573 0.96008-0.1947 0.55725-0.1947 1.2354 0 0.74524 0.1947 1.3159 0.2014 0.56397 0.5573 0.94666 0.3558 0.38269 0.8526 0.57739 0.5036 0.1947 1.1078 0.1947 0.2954 0 0.5841-0.0671t0.5371-0.20141v-2.0142h-1.6449q-0.1208 0-0.1879-0.14771-0.067-0.15442-0.067-0.51697 0-0.18798 0.013-0.31555 0.02-0.12756 0.054-0.20141 0.034-0.0806 0.081-0.11414 0.047-0.0403 0.1074-0.0403h2.934q0.1074 0 0.188 0.0403 0.087 0.0336 0.1477 0.10742 0.067 0.0739 0.1007 0.18128 0.034 0.10071 0.034 0.23498v3.4576q0 0.20142-0.074 0.35584-0.067 0.1477-0.2887 0.23498-0.2148 0.0873-0.5371 0.18128-0.3223 0.094-0.6714 0.16113-0.3424 0.0671-0.6982 0.10071-0.3491 0.0336-0.705 0.0336-1.0406 0-1.8664-0.29541-0.8191-0.30213-1.3898-0.86609-0.5707-0.57068-0.8728-1.3831-0.3021-0.81909-0.3021-1.853 0-1.0675 0.3222-1.9135 0.3223-0.85266 0.9131-1.4435 0.5908-0.59753 1.4234-0.91308 0.8392-0.31556 1.8664-0.31556 0.564 0 1.0272 0.0806 0.4633 0.0738 0.8057 0.18799 0.3491 0.10742 0.5774 0.23498 0.2283 0.12757 0.3156 0.22156 0.094 0.094 0.1342 0.26856 0.04 0.16784 0.04 0.50354z"/>
<path d="m-2751-253.98q0 0.46326-0.1275 0.83924-0.1276 0.37597-0.3559 0.66467-0.2215 0.2887-0.5371 0.49683-0.3088 0.20813-0.6848 0.3424-0.376 0.13428-0.8057 0.20142-0.4229 0.0604-0.9466 0.0604h-2.3096q-0.2215 0-0.376-0.12756-0.1477-0.13428-0.1477-0.42969v-7.5732q0-0.29541 0.1477-0.42297 0.1545-0.13428 0.376-0.13428h2.182q0.799 0 1.3495 0.13428 0.5573 0.13427 0.9332 0.40954 0.3827 0.26856 0.5841 0.68482 0.2015 0.41626 0.2015 0.98022 0 0.31555-0.081 0.59754-0.081 0.27526-0.235 0.50354-0.1544 0.22827-0.3827 0.40283-0.2215 0.17456-0.5102 0.28198 0.3692 0.0671 0.6781 0.23499 0.3155 0.16784 0.5438 0.4364 0.235 0.26184 0.3693 0.61767 0.1342 0.35584 0.1342 0.79895zm-2.2827-3.659q0-0.26185-0.081-0.46998-0.081-0.20812-0.2417-0.3424-0.1611-0.14099-0.4095-0.21485-0.2417-0.0738-0.6512-0.0738h-0.893v2.2559h0.987q0.3826 0 0.6109-0.0873 0.2283-0.094 0.376-0.24841 0.1544-0.16114 0.2283-0.36927 0.074-0.21484 0.074-0.44982zm0.4498 3.7195q0-0.30213-0.1007-0.53711-0.1007-0.2417-0.2954-0.40283-0.1947-0.16114-0.4968-0.24842-0.3021-0.0873-0.7855-0.0873h-1.0474v2.4707h1.2756q0.3693 0 0.6177-0.0739 0.2552-0.0806 0.4364-0.22827 0.188-0.15442 0.2887-0.37597 0.1074-0.22828 0.1074-0.51697z"/>
<path d="m-2744.8-252.12q0 0.20141-0.02 0.34241-0.014 0.13427-0.047 0.22827-0.034 0.0873-0.087 0.12756-0.047 0.0403-0.1141 0.0403h-3.9814q-0.2215 0-0.3759-0.12756-0.1477-0.13428-0.1477-0.42969v-7.8888q0-0.0671 0.04-0.12085 0.047-0.0537 0.1477-0.0873 0.1008-0.0336 0.2686-0.0537 0.1746-0.0201 0.4297-0.0201 0.2618 0 0.4297 0.0201 0.1678 0.0201 0.2685 0.0537t0.141 0.0873q0.047 0.0537 0.047 0.12085v6.9891h2.7326q0.067 0 0.1141 0.0403 0.054 0.0336 0.087 0.12085 0.034 0.0806 0.047 0.22156 0.02 0.13427 0.02 0.33569z"/>
<path d="m-2736.1-255.82q0 1.0809-0.2685 1.9336-0.2686 0.85266-0.799 1.4502-0.5304 0.59082-1.3159 0.90637-0.7788 0.30884-1.806 0.30884-1.0138 0-1.7725-0.26184-0.7519-0.26855-1.2555-0.81238-0.5035-0.54382-0.7586-1.383-0.2485-0.83924-0.2485-1.9873 0-1.0541 0.2686-1.8933 0.2686-0.84595 0.799-1.4368 0.5303-0.59082 1.3092-0.90637 0.7855-0.31555 1.8194-0.31555 0.987 0 1.7389 0.26184 0.7587 0.26184 1.2622 0.80567 0.5103 0.54382 0.7654 1.3763 0.2618 0.8258 0.2618 1.9537zm-1.853 0.094q0-0.68482-0.1074-1.2421-0.1074-0.56396-0.3693-0.96008-0.2551-0.40283-0.6848-0.61768-0.4297-0.22155-1.0742-0.22155-0.6513 0-1.0877 0.24841-0.4364 0.2417-0.7049 0.65124-0.2686 0.40955-0.3827 0.96009-0.1074 0.54382-0.1074 1.1548 0 0.71167 0.1074 1.2824 0.1074 0.56397 0.3625 0.9668 0.2552 0.40283 0.6849 0.61767 0.4296 0.20813 1.0809 0.20813 0.6512 0 1.0876-0.2417 0.4364-0.24169 0.705-0.65795 0.2685-0.41626 0.376-0.9668 0.1141-0.55725 0.1141-1.1816z"/>
<path d="m-2728.7-252.69q0 0.16784-0.013 0.28869-0.01 0.11414-0.027 0.20142-0.02 0.0806-0.054 0.14099-0.034 0.0604-0.1074 0.14099-0.074 0.0738-0.2887 0.1947-0.2081 0.12085-0.517 0.23499-0.3021 0.10742-0.6982 0.18127-0.3894 0.0738-0.846 0.0738-0.8929 0-1.6113-0.27526-0.7184-0.27527-1.2219-0.8191-0.5036-0.55053-0.7721-1.3696-0.2686-0.8191-0.2686-1.9067 0-1.1078 0.2954-1.9672 0.2954-0.85937 0.8258-1.4435 0.5304-0.5841 1.269-0.88623 0.7452-0.30212 1.6381-0.30212 0.3626 0 0.6983 0.0604t0.6177 0.16114q0.2887 0.094 0.5169 0.22155 0.2283 0.12757 0.3156 0.22156 0.094 0.0873 0.1275 0.14771 0.034 0.0604 0.054 0.15442 0.02 0.094 0.027 0.22155 0.013 0.12757 0.013 0.31555 0 0.20142-0.013 0.34241t-0.047 0.22827q-0.034 0.0873-0.081 0.12757-0.047 0.0403-0.1075 0.0403-0.1007 0-0.2551-0.11414-0.1544-0.12085-0.4028-0.26184-0.2417-0.1477-0.5841-0.26184-0.3357-0.12085-0.8057-0.12085-0.517 0-0.9265 0.21485-0.4028 0.20813-0.6915 0.60424-0.282 0.38941-0.4297 0.94666t-0.1477 1.2555q0 0.76538 0.1544 1.3294 0.1611 0.55725 0.4498 0.9198 0.2954 0.36255 0.705 0.54382 0.4162 0.17456 0.9332 0.17456 0.47 0 0.8124-0.10742 0.3424-0.11414 0.5841-0.24841 0.2484-0.13428 0.4028-0.2417 0.1611-0.10742 0.2484-0.10742 0.067 0 0.1074 0.0268 0.04 0.0269 0.067 0.10742 0.027 0.0806 0.04 0.22828 0.013 0.14099 0.013 0.38269z"/>
<path d="m-2721-251.64q0 0.0739-0.04 0.13428-0.034 0.0537-0.141 0.094-0.1007 0.0336-0.2819 0.0537-0.1813 0.0201-0.4566 0.0201-0.4364 0-0.6311-0.0336-0.188-0.0336-0.2752-0.10071-0.081-0.0671-0.1276-0.16113l-2.6251-4.1223v4.1223q0 0.0738-0.04 0.12756-0.04 0.0537-0.141 0.094-0.1007 0.0336-0.2686 0.0537-0.1678 0.0201-0.4297 0.0201-0.2551 0-0.4296-0.0201-0.1679-0.0202-0.2686-0.0537-0.1007-0.0403-0.1477-0.094-0.04-0.0537-0.04-0.12756v-8.1842q0-0.0738 0.04-0.12756 0.047-0.0537 0.1477-0.0873t0.2686-0.0537q0.1745-0.0201 0.4296-0.0201 0.2619 0 0.4297 0.0201 0.1679 0.0201 0.2686 0.0537t0.141 0.0873q0.04 0.0537 0.04 0.12756v3.6993l2.5445-3.6926q0.047-0.0873 0.1142-0.14099 0.067-0.0604 0.1745-0.094 0.1074-0.0336 0.2753-0.047 0.1678-0.0134 0.4297-0.0134 0.2685 0 0.4431 0.0201 0.1745 0.0201 0.2753 0.0604 0.1074 0.0336 0.1477 0.0873 0.04 0.0537 0.04 0.12085 0 0.11414-0.06 0.23499t-0.2283 0.38269l-2.3834 3.122 2.5983 3.9276q0.1477 0.27527 0.1746 0.36926 0.034 0.0873 0.034 0.14099z"/>
<path d="m-2714.7-252.07q0 0.1947-0.02 0.32897-0.013 0.12757-0.047 0.20813-0.034 0.0806-0.087 0.12085-0.047 0.0336-0.1075 0.0336h-4.364q-0.2215 0-0.3759-0.12756-0.1478-0.13428-0.1478-0.42969v-7.5732q0-0.29541 0.1478-0.42297 0.1544-0.13428 0.3759-0.13428h4.3372q0.06 0 0.1074 0.0336 0.047 0.0336 0.081 0.12085 0.034 0.0806 0.047 0.21484 0.02 0.12757 0.02 0.32898 0 0.18799-0.02 0.32227-0.014 0.12756-0.047 0.20813-0.034 0.0806-0.081 0.12085-0.047 0.0336-0.1074 0.0336h-3.1018v2.1216h2.6251q0.06 0 0.1074 0.0403 0.054 0.0336 0.087 0.11414 0.034 0.0739 0.047 0.20813 0.02 0.12756 0.02 0.31555 0 0.1947-0.02 0.32226-0.013 0.12757-0.047 0.20813-0.034 0.0739-0.087 0.10743-0.047 0.0336-0.1074 0.0336h-2.6251v2.4506h3.1286q0.061 0 0.1075 0.0403 0.054 0.0336 0.087 0.11414 0.034 0.0806 0.047 0.21484 0.02 0.12756 0.02 0.32227z"/>
<path d="m-2705.9-255.85q0 1.1951-0.3155 2.0477-0.3089 0.84594-0.893 1.383t-1.4233 0.79224q-0.8325 0.24841-1.9873 0.24841h-2.0746q-0.2216 0-0.376-0.12756-0.1477-0.13428-0.1477-0.42969v-7.5732q0-0.29541 0.1477-0.42297 0.1544-0.13428 0.376-0.13428h2.229q1.1615 0 1.9672 0.27527 0.8123 0.26855 1.3629 0.80566 0.5572 0.5304 0.8459 1.3159t0.2887 1.8195zm-1.8261 0.0604q0-0.61767-0.1478-1.1481-0.1409-0.53039-0.4632-0.9198-0.3156-0.3894-0.8191-0.60425-0.4968-0.22155-1.3092-0.22155h-0.893v5.9082h0.9198q0.7251 0 1.222-0.18799 0.4968-0.18799 0.8258-0.56396 0.3357-0.38269 0.4968-0.94666 0.1679-0.56396 0.1679-1.3159z"/>
</g>
</g>
</svg>
