<svg xmlns="http://www.w3.org/2000/svg" viewBox="0 0 512 512"><linearGradient id="a" x1="51.661" x2="427.661" y1="250.009" y2="250.009" gradientUnits="userSpaceOnUse"><stop offset=".102" stop-color="#cf4aff" stop-opacity="0"/><stop offset=".873" stop-color="#cf4aff" stop-opacity=".7"/></linearGradient><path fill="url(#a)" d="M51.7 318.5l5.4 103 370.6 20s-48-364-172-383c-106 68-165 162-204 260z"/><path fill="#AF8AFF" d="M135.7 413.5c-43-2-44-35 43-30-30-3-55.2-11.5-50-22 1-2 50 3 50 3-29-7-72-36-72-40s47-67 157-10l126 107"/><path fill="#914ED4" d="M447.4 481.3c-62.1-6.1-129.4-10.3-212-13.2-14.6-.5-57.1-3-95.6-7.5-22.9-2.6-41.1-5.5-54.2-8.7-16.1-3.8-30.9-9.1-30.9-21.5 0-2.9.3-8 5-11.4 20.1-14.5 149.7-9.2 160.7-9.2 6.4 0 11.7.1 15.2.2 52.2 1.9 98.5 4.2 141.3 7.2-12.5-69.1-27.3-140.1-44.2-187.6-22.3-62.5-49.1-113.7-77.8-136.2-66.4 37.6-132 91-203 225 56-182 161-289 208.1-289.1 7.9 0 11.2 1.4 11.2 1.4 126.4 52.6 168.9 322.7 184.9 424.4.9 5.4 1.6 10.3 2.3 14.6l2.1 12.8-13.1-1.2z"/><path fill="#AF8AFF" d="M246.7 321.5c27-31 46-86 45-130 45 13 74 101 76 154 5-27 24-38 35-38 3 59-12 86-26 110l-130-96z"/></svg>